<svg xmlns="http://www.w3.org/2000/svg" viewBox="0 0 512 512">
  <defs>
    <linearGradient id="goldGradient" x1="0%" y1="0%" x2="100%" y2="100%">
      <stop offset="0%" style="stop-color:#f59e0b;stop-opacity:1" />
      <stop offset="100%" style="stop-color:#d97706;stop-opacity:1" />
    </linearGradient>
  </defs>
  <!-- Heart Shape -->
  <path fill="url(#goldGradient)" d="M256 448l-30.164-27.211C118.718 322.442 48 258.61 48 179.095 48 114.221 98.221 64 163.095 64c36.391 0 71.321 16.941 92.905 43.513C277.584 80.941 312.514 64 348.905 64 413.779 64 464 114.221 464 179.095c0 79.515-70.718 143.347-177.836 241.694L256 448z" />
  <!-- Wallet / Money Bag silhouette inside (cutout style) -->
  <path fill="#ffffff" fill-opacity="0.9" d="M320 200h-128c-17.6 0-32 14.4-32 32v64c0 17.6 14.4 32 32 32h128c17.6 0 32-14.4 32-32v-64c0-17.6-14.4-32-32-32zm-8 64h-112v-32h112v32zm0-40h-112v-8h112v8z" />
  <!-- Coin detail -->
  <circle cx="256" cy="285" r="25" fill="#f59e0b" />
  <path fill="#ffffff" d="M256 270v30M245 285h22" stroke="#d97706" stroke-width="4" stroke-linecap="round"/>
</svg>